HIERARCHY
ROOT Hips
{
	OFFSET 0.000000 0.000000 0.000000
	CHANNELS 6 Xposition Yposition Zposition Zrotation Yrotation Xrotation 
	JOINT LHipJoint
	{
		OFFSET 0.000000 0.000000 0.000000
		CHANNELS 3 Zrotation Yrotation Xrotation
		JOINT LeftUpLeg
		{
			OFFSET 1.363060 -1.794630 0.839290
			CHANNELS 3 Zrotation Yrotation Xrotation
			JOINT LeftLeg
			{
				OFFSET 2.448110 -6.726130 0.000000
				CHANNELS 3 Zrotation Yrotation Xrotation
				JOINT LeftFoot
				{
					OFFSET 2.562200 -7.039590 0.000000
					CHANNELS 3 Zrotation Yrotation Xrotation
					JOINT LeftToeBase
					{
						OFFSET 0.157640 -0.433110 2.322550
						CHANNELS 3 Zrotation Yrotation Xrotation
						End Site
						{
							OFFSET 0.000000 0.000000 0.000000
						}
					}
				}
			}
		}
	}
	JOINT RHipJoint
	{
		OFFSET 0.000000 0.000000 0.000000
		CHANNELS 3 Zrotation Yrotation Xrotation
		JOINT RightUpLeg
		{
			OFFSET -1.305520 -1.794630 0.839290
			CHANNELS 3 Zrotation Yrotation Xrotation
			JOINT RightLeg
			{
				OFFSET -2.542530 -6.985550 0.000000
				CHANNELS 3 Zrotation Yrotation Xrotation
				JOINT RightFoot
				{
					OFFSET -2.568260 -7.056230 0.000000
					CHANNELS 3 Zrotation Yrotation Xrotation
					JOINT RightToeBase
					{
						OFFSET -0.164730 -0.452590 2.363150
						CHANNELS 3 Zrotation Yrotation Xrotation
						End Site
						{
							OFFSET 0.000000 0.000000 0.000000
						}
					}
				}
			}
		}
	}
}
MOTION
Frames: 30
Frame Time: 0.008333
0.319167 16.705303 -3.133949 -173.351177 50.203332 -155.633121 -14.162460 1.430199 -0.508901 -5.125544 -3.467945 -16.071641 0.060729 2.921293 50.268320 2.361692 14.645511 -9.877388 -0.576600 0.000000 -32.653500 6.131590 -0.240583 0.542394 7.072823 3.475659 -38.982281 2.859972 -1.166125 21.770195 0.294947 1.495016 4.264378 -0.231301 0.000000 -57.161900
0.441884 16.732969 -3.180709 -173.664259 49.011548 -155.925484 -14.232329 1.364032 -0.687237 -5.205119 -2.356770 -17.442452 0.205448 3.037357 52.275326 2.754460 17.203567 -9.823426 -0.603300 0.000000 -25.759100 6.138604 -0.279798 0.582049 7.023979 3.548040 -38.331277 2.758999 -1.118990 22.092770 0.032323 0.125621 3.123227 -0.533200 -0.000000 -56.849499
0.562826 16.764093 -3.225845 -174.093670 47.792918 -156.307029 -14.260748 1.298046 -0.845586 -5.424183 -1.399800 -18.754285 0.325878 3.138909 54.066135 3.132694 19.617095 -9.829806 -0.632000 0.000000 -20.058800 6.175462 -0.302425 0.618326 6.860964 3.572525 -37.581231 2.643147 -1.057413 22.210545 -0.242708 -1.275503 2.197491 -0.803701 -0.000000 -56.681400
0.681740 16.798031 -3.270510 -174.616406 46.546536 -156.754495 -14.253988 1.239140 -0.975745 -5.767880 -0.619461 -20.001173 0.425026 3.226246 55.639424 3.470640 21.749790 -9.823184 -0.644700 0.000000 -16.104001 6.240845 -0.312166 0.642311 6.606550 3.508415 -36.750192 2.519258 -0.986825 22.139958 -0.514867 -2.646685 1.510339 -1.046700 -0.000000 -56.623800
0.798378 16.834087 -3.315869 -175.206020 45.273141 -157.241248 -14.219414 1.191943 -1.072927 -6.216280 -0.017816 -21.189921 0.503354 3.300521 57.012389 3.747933 23.486315 -9.810627 -0.645900 -0.000000 -13.584100 6.331078 -0.313621 0.648527 6.286481 3.325645 -35.859349 2.395586 -0.911651 21.903391 -0.768815 -3.925654 1.055680 -1.266300 -0.000000 -56.645699
0.912438 16.871639 -3.362795 -175.834947 43.977807 -157.744666 -14.164548 1.158083 -1.137092 -6.745724 0.419581 -22.325267 0.562105 3.363003 58.199748 3.951806 24.751644 -9.796550 -0.639900 0.000000 -12.117100 6.440739 -0.311248 0.632470 5.926876 3.007848 -34.923057 2.280362 -0.835474 21.526675 -0.991199 -5.055806 0.804275 -1.463501 0.000000 -56.722100
1.023641 16.910059 -3.412043 -176.471772 42.666937 -158.239040 -14.097466 1.136410 -1.169179 -7.326837 0.714614 -23.416988 0.603569 3.414759 59.213440 4.076472 25.511372 -9.767079 -0.623100 -0.000001 -11.434500 6.562205 -0.309638 0.593308 5.554149 2.555968 -33.955988 2.181124 -0.760472 21.036254 -1.172465 -5.994537 0.712803 -1.635800 -0.000000 -56.835900
1.131591 16.948791 -3.464232 -177.084776 41.348509 -158.700854 -14.025878 1.123571 -1.172104 -7.927981 0.893875 -24.473402 0.630568 3.456755 60.060992 4.122045 25.769499 -9.689892 -0.582600 0.000001 -11.427900 6.686835 -0.312881 0.532237 5.192341 1.986495 -32.968502 2.103599 -0.687775 20.458030 -1.307648 -6.716953 0.731946 -1.777699 -0.000000 -56.977000
1.236236 16.987392 -3.519482 -177.654212 40.032232 -159.115632 -13.954592 1.115707 -1.149351 -8.524087 0.981763 -25.503179 0.644886 3.489684 60.748736 4.093967 25.561922 -9.551196 -0.514000 0.000000 -11.900900 6.808053 -0.323556 0.452915 4.856125 1.324658 -31.971498 2.050402 -0.618024 19.818465 -1.395917 -7.214502 0.814818 -1.883100 0.000001 -57.149299
1.337605 17.025470 -3.577649 -178.163156 38.729063 -159.473806 -13.887699 1.107961 -1.106486 -9.089476 1.005758 -26.511120 0.649189 3.514164 61.278269 4.002038 24.957095 -9.311318 -0.404300 0.000001 -12.969100 6.919530 -0.343643 0.360093 4.558033 0.608357 -30.968816 2.021617 -0.551072 19.138941 -1.440756 -7.499049 0.923016 -1.948500 0.000000 -57.349500
1.435826 17.062728 -3.638389 -178.604980 37.448849 -159.773164 -13.825993 1.096364 -1.049217 -9.611222 0.988505 -27.502108 0.644332 3.530692 61.653253 3.860787 24.045439 -8.981711 -0.265400 -0.000000 -14.466800 7.018393 -0.373449 0.259584 4.299388 -0.125609 -29.964998 2.014499 -0.486836 18.439173 -1.447984 -7.594282 1.031587 -1.974400 0.000000 -57.589900
1.531231 17.098918 -3.701169 -178.980031 36.200245 -160.016511 -13.768225 1.077654 -0.983354 -10.084667 0.949387 -28.478302 0.631401 3.539342 61.875782 3.688242 22.938145 -8.574108 -0.109100 0.000000 -16.357800 7.104181 -0.412205 0.157399 4.075640 -0.841329 -28.963117 2.024367 -0.425252 17.735096 -1.425029 -7.533415 1.128664 -1.965101 0.000000 -57.871100
1.624222 17.133847 -3.765363 -179.295021 34.990598 -160.211691 -13.711054 1.049892 -0.915149 -10.514106 0.905496 -29.439909 0.610144 3.540367 61.950772 3.504048 21.751351 -8.137387 0.041200 -0.000000 -18.424800 7.178927 -0.458254 0.058739 3.877182 -1.509336 -27.964013 2.045217 -0.366497 17.037992 -1.379760 -7.354616 1.216710 -1.929000 -0.000000 -58.207900
1.715173 17.167355 -3.830430 -179.560101 33.825990 -160.368210 -13.650255 1.012418 -0.850119 -10.910505 0.869767 -30.385847 0.579905 3.534016 61.884049 3.326962 20.595988 -7.728922 0.166400 0.000000 -20.457700 7.245924 -0.509372 -0.032451 3.692554 -2.108526 -26.969361 2.070959 -0.311002 16.356202 -1.319500 -7.095183 1.306241 -1.875600 0.000000 -58.593500
1.804523 17.199373 -3.895844 -179.786706 32.709621 -160.496258 -13.581558 0.965735 -0.792393 -11.285815 0.850713 -31.314387 0.539611 3.520672 61.683722 3.172234 19.562831 -7.412561 0.251501 -0.000000 -22.212700 7.308870 -0.563756 -0.113251 3.511994 -2.625613 -25.979057 2.095823 -0.259127 15.690832 -1.250948 -6.792708 1.418946 -1.815900 -0.000000 -59.046100
1.892572 17.229739 -3.961270 -179.986310 31.644187 -160.605086 -13.501067 0.911443 -0.744865 -11.654206 0.851893 -32.222267 0.488169 3.500812 61.357893 3.050425 18.716074 -7.240317 0.289799 0.000000 -23.513600 7.371571 -0.619026 -0.183456 3.326280 -3.059550 -24.995747 2.115649 -0.211722 15.045668 -1.178777 -6.473086 1.570013 -1.757000 0.000000 -59.540700
1.979487 17.258453 -4.026516 179.832657 30.629549 -160.701962 -13.406635 0.851553 -0.708094 -12.023096 0.873080 -33.106521 0.424903 3.474799 60.913319 2.966628 18.086581 -7.242408 0.281001 -0.000000 -24.268900 7.436278 -0.674170 -0.243448 3.133253 -3.413974 -24.019349 2.127672 -0.169002 14.416724 -1.106892 -6.160468 1.778425 -1.705899 0.000000 -60.083000
2.065298 17.285391 -4.091615 179.666321 29.663967 -160.790564 -13.297734 0.788113 -0.680975 -12.396310 0.910262 -33.964902 0.349637 3.442888 60.355026 2.921159 17.673837 -7.425166 0.228200 0.000000 -24.477200 7.503907 -0.728241 -0.295263 2.933911 -3.699907 -23.052089 2.131290 -0.131073 13.802156 -1.037503 -5.867748 2.050963 -1.665300 0.000001 -60.647900
2.149916 17.310554 -4.156703 179.512713 28.744678 -160.873224 -13.175365 0.723072 -0.660940 -12.771720 0.958034 -34.795581 0.262810 3.405153 59.685958 2.910310 17.450764 -7.769769 0.137100 0.000000 -24.211500 7.574072 -0.781037 -0.341341 2.733921 -3.931042 -22.094546 2.127296 -0.097506 13.197765 -0.971897 -5.602195 2.388172 -1.636100 0.000000 -61.219799
2.233166 17.333808 -4.222087 179.373405 27.868414 -160.947984 -13.042030 0.657728 -0.644470 -13.142463 1.009689 -35.601004 0.165450 3.361803 58.908594 2.927581 17.372523 -8.238952 0.015800 -0.000001 -23.590700 7.644753 -0.832325 -0.384603 2.542555 -4.122115 -21.149776 2.118136 -0.067372 12.602388 -0.910422 -5.363229 2.775577 -1.616200 0.000000 -61.749100
2.314900 17.355111 -4.288033 179.250913 27.029881 -161.015242 -12.900997 0.593220 -0.627693 -13.499418 1.060075 -36.380536 0.059347 3.312620 58.023317 2.964524 17.385815 -8.778410 -0.123700 -0.000000 -22.772300 7.713585 -0.882741 -0.427014 2.369405 -4.285653 -20.215908 2.106363 -0.039403 12.011497 -0.853175 -5.149550 3.198291 -1.603400 0.000001 -62.246200
2.394975 17.374337 -4.354912 179.148567 26.225024 -161.070438 -12.755848 0.529964 -0.606669 -13.832039 1.104189 -37.141314 -0.053437 3.257836 57.032506 3.012016 17.437081 -9.330175 -0.266900 -0.000000 -21.912099 7.777380 -0.932351 -0.469940 2.225468 -4.430451 -19.296520 2.095299 -0.011986 11.426507 -0.799779 -4.954568 3.626241 -1.593400 -0.000000 -62.651700
2.473158 17.391379 -4.422983 179.070493 25.448176 -161.112926 -12.610222 0.468358 -0.578039 -14.131605 1.139249 -37.885261 -0.170468 3.197305 55.936718 3.061059 17.479601 -9.834462 -0.396500 0.000000 -21.166900 7.833448 -0.981919 -0.513607 2.117683 -4.561158 -18.388248 2.087248 0.016400 10.844551 -0.750079 -4.775536 4.038333 -1.584100 0.000000 -63.014699
2.549426 17.406082 -4.492595 179.019843 24.695045 -161.136594 -12.466601 0.408305 -0.539262 -14.391728 1.162294 -38.621355 -0.289626 3.131279 54.738986 3.104016 17.477249 -10.242966 -0.496400 0.000000 -20.653501 7.879512 -1.031191 -0.557495 2.052197 -4.676708 -17.494908 2.084499 0.047107 10.271137 -0.703674 -4.605888 4.401525 -1.571300 -0.000000 -63.263700
2.623784 17.418295 -4.563872 178.996366 23.961209 -161.141908 -12.326869 0.350107 -0.488229 -14.610535 1.171872 -39.353091 -0.409222 3.059653 53.440674 3.135023 17.406287 -10.519779 -0.553900 -0.000000 -20.453000 7.914379 -1.080413 -0.599595 2.028873 -4.772031 -16.615414 2.087625 0.081035 9.708213 -0.660543 -4.444081 4.697539 -1.553800 -0.000000 -63.439400
2.696475 17.427898 -4.636894 178.997394 23.243764 -161.126309 -12.190823 0.293795 -0.424293 -14.789804 1.165248 -40.085095 -0.528406 2.982252 52.042953 3.150618 17.255043 -10.647624 -0.562201 -0.000000 -20.591400 7.938587 -1.128862 -0.638220 2.044645 -4.839135 -15.752207 2.096349 0.118355 9.161768 -0.620666 -4.288000 4.910838 -1.530500 0.000000 -63.548500
2.767645 17.434695 -4.711691 179.018619 22.540765 -161.091724 -12.058066 0.239983 -0.346728 -14.935639 1.140305 -40.817317 -0.647128 2.898574 50.546230 3.149601 17.021991 -10.628212 -0.522200 0.000000 -21.040300 7.953233 -1.176234 -0.670696 2.091032 -4.868561 -14.905874 2.109383 0.158631 8.638137 -0.583882 -4.135788 5.036313 -1.501101 -0.000000 -63.624600
2.837590 17.438582 -4.788196 179.053430 21.852762 -161.040239 -11.926722 0.189217 -0.255946 -15.056176 1.094200 -41.547180 -0.766319 2.807813 48.949542 3.132673 16.712569 -10.480733 -0.441300 0.000000 -21.721601 7.960857 -1.221574 -0.695185 2.156944 -4.851145 -14.078662 2.124812 0.200656 8.145577 -0.549851 -3.984191 5.075100 -1.465400 0.000000 -63.680800
2.906581 17.439451 -4.866359 179.096004 21.180635 -160.972977 -11.794344 0.141707 -0.152782 -15.159738 1.022382 -42.269090 -0.887438 2.708652 47.251289 3.101915 16.336566 -10.238128 -0.331900 -0.000000 -22.522900 7.964721 -1.263916 -0.710762 2.230173 -4.779833 -13.273898 2.140541 0.242615 7.692377 -0.518062 -3.829318 5.036286 -1.423200 -0.000001 -63.745500
2.974885 17.437192 -4.946102 179.138580 20.528290 -160.894054 -11.658790 0.097719 -0.038048 -15.252845 0.921129 -42.974152 -1.012474 2.599552 45.449894 3.059884 15.904501 -9.941459 -0.208700 0.000000 -23.319100 7.968022 -1.302578 -0.717260 2.298936 -4.650550 -12.493826 2.154467 0.282311 7.286750 -0.487566 -3.665246 4.934796 -1.374400 0.000000 -63.845900
